<?xml version="1.0" encoding="UTF-8" standalone="no"?><!-- Generator: Gravit.io --><svg xmlns="http://www.w3.org/2000/svg" xmlns:xlink="http://www.w3.org/1999/xlink" style="isolation:isolate" viewBox="45 1.778 191.5 52.5" width="191.5pt" height="52.5pt"><rect x="45" y="1.778" width="191.5" height="52.5" transform="matrix(1,0,0,1,0,0)" fill="rgb(255,255,255,0)"/><path d=" M 78.665 35.945 L 76.911 35.945 L 75.097 31.311 L 69.258 31.311 L 67.464 35.945 L 65.75 35.945 L 71.51 21.317 L 72.935 21.317 L 78.665 35.945 L 78.665 35.945 Z  M 69.856 29.787 L 74.569 29.787 L 72.875 25.273 L 72.875 25.273 Q 72.546 24.416 72.197 23.17 L 72.197 23.17 L 72.197 23.17 Q 71.978 24.127 71.57 25.273 L 71.57 25.273 L 69.856 29.787 L 69.856 29.787 Z  M 85.789 21.376 L 85.789 35.945 L 84.175 35.945 L 84.175 25.562 L 84.175 25.562 Q 84.175 24.266 84.255 23.11 L 84.255 23.11 L 84.255 23.11 Q 84.046 23.319 83.787 23.549 L 83.787 23.549 L 83.787 23.549 Q 83.527 23.778 81.415 25.492 L 81.415 25.492 L 80.538 24.356 L 84.394 21.376 L 85.789 21.376 L 85.789 21.376 Z  M 97.458 21.376 L 97.458 35.945 L 95.844 35.945 L 95.844 25.562 L 95.844 25.562 Q 95.844 24.266 95.924 23.11 L 95.924 23.11 L 95.924 23.11 Q 95.715 23.319 95.455 23.549 L 95.455 23.549 L 95.455 23.549 Q 95.196 23.778 93.084 25.492 L 93.084 25.492 L 92.207 24.356 L 96.063 21.376 L 97.458 21.376 L 97.458 21.376 Z  M 106.427 36.005 L 102.022 25.023 L 103.796 25.023 L 106.188 31.252 L 106.188 31.252 Q 106.975 33.384 107.164 34.331 L 107.164 34.331 L 107.244 34.331 L 107.244 34.331 Q 107.373 33.823 107.787 32.592 L 107.787 32.592 L 107.787 32.592 Q 108.201 31.361 110.493 25.023 L 110.493 25.023 L 112.266 25.023 L 107.573 37.46 L 107.573 37.46 Q 106.875 39.303 105.944 40.076 L 105.944 40.076 L 105.944 40.076 Q 105.012 40.848 103.657 40.848 L 103.657 40.848 L 103.657 40.848 Q 102.899 40.848 102.162 40.678 L 102.162 40.678 L 102.162 39.353 L 102.162 39.353 Q 102.71 39.473 103.388 39.473 L 103.388 39.473 L 103.388 39.473 Q 105.092 39.473 105.819 37.559 L 105.819 37.559 L 106.427 36.005 L 106.427 36.005 Z  M 118.016 31.232 L 113.123 31.232 L 113.123 29.717 L 118.016 29.717 L 118.016 31.232 L 118.016 31.232 Z  M 120.856 35.945 L 120.856 21.376 L 124.972 21.376 L 124.972 21.376 Q 127.871 21.376 129.167 22.243 L 129.167 22.243 L 129.167 22.243 Q 130.462 23.11 130.462 24.984 L 130.462 24.984 L 130.462 24.984 Q 130.462 26.279 129.74 27.121 L 129.74 27.121 L 129.74 27.121 Q 129.017 27.963 127.632 28.212 L 127.632 28.212 L 127.632 28.312 L 127.632 28.312 Q 130.95 28.88 130.95 31.8 L 130.95 31.8 L 130.95 31.8 Q 130.95 33.753 129.63 34.849 L 129.63 34.849 L 129.63 34.849 Q 128.31 35.945 125.938 35.945 L 125.938 35.945 L 120.856 35.945 L 120.856 35.945 Z  M 122.55 22.841 L 122.55 27.614 L 125.34 27.614 L 125.34 27.614 Q 127.134 27.614 127.921 27.051 L 127.921 27.051 L 127.921 27.051 Q 128.708 26.488 128.708 25.153 L 128.708 25.153 L 128.708 25.153 Q 128.708 23.927 127.831 23.384 L 127.831 23.384 L 127.831 23.384 Q 126.955 22.841 125.041 22.841 L 125.041 22.841 L 122.55 22.841 L 122.55 22.841 Z  M 125.45 29.049 L 122.55 29.049 L 122.55 34.5 L 125.589 34.5 L 125.589 34.5 Q 127.353 34.5 128.245 33.818 L 128.245 33.818 L 128.245 33.818 Q 129.137 33.135 129.137 31.68 L 129.137 31.68 L 129.137 31.68 Q 129.137 30.325 128.225 29.687 L 128.225 29.687 L 128.225 29.687 Q 127.313 29.049 125.45 29.049 L 125.45 29.049 L 125.45 29.049 Z  M 143.257 30.474 L 143.257 30.474 L 143.257 30.474 Q 143.257 33.145 141.912 34.645 L 141.912 34.645 L 141.912 34.645 Q 140.567 36.144 138.195 36.144 L 138.195 36.144 L 138.195 36.144 Q 136.73 36.144 135.594 35.457 L 135.594 35.457 L 135.594 35.457 Q 134.458 34.769 133.84 33.484 L 133.84 33.484 L 133.84 33.484 Q 133.222 32.198 133.222 30.474 L 133.222 30.474 L 133.222 30.474 Q 133.222 27.804 134.558 26.314 L 134.558 26.314 L 134.558 26.314 Q 135.893 24.824 138.265 24.824 L 138.265 24.824 L 138.265 24.824 Q 140.557 24.824 141.907 26.349 L 141.907 26.349 L 141.907 26.349 Q 143.257 27.873 143.257 30.474 Z  M 134.936 30.474 L 134.936 30.474 L 134.936 30.474 Q 134.936 32.567 135.774 33.663 L 135.774 33.663 L 135.774 33.663 Q 136.611 34.759 138.235 34.759 L 138.235 34.759 L 138.235 34.759 Q 139.859 34.759 140.701 33.668 L 140.701 33.668 L 140.701 33.668 Q 141.543 32.577 141.543 30.474 L 141.543 30.474 L 141.543 30.474 Q 141.543 28.392 140.701 27.31 L 140.701 27.31 L 140.701 27.31 Q 139.859 26.229 138.215 26.229 L 138.215 26.229 L 138.215 26.229 Q 136.591 26.229 135.764 27.295 L 135.764 27.295 L 135.764 27.295 Q 134.936 28.362 134.936 30.474 Z  M 155.584 30.474 L 155.584 30.474 L 155.584 30.474 Q 155.584 33.145 154.239 34.645 L 154.239 34.645 L 154.239 34.645 Q 152.893 36.144 150.522 36.144 L 150.522 36.144 L 150.522 36.144 Q 149.057 36.144 147.921 35.457 L 147.921 35.457 L 147.921 35.457 Q 146.785 34.769 146.167 33.484 L 146.167 33.484 L 146.167 33.484 Q 145.549 32.198 145.549 30.474 L 145.549 30.474 L 145.549 30.474 Q 145.549 27.804 146.884 26.314 L 146.884 26.314 L 146.884 26.314 Q 148.22 24.824 150.591 24.824 L 150.591 24.824 L 150.591 24.824 Q 152.883 24.824 154.234 26.349 L 154.234 26.349 L 154.234 26.349 Q 155.584 27.873 155.584 30.474 Z  M 147.263 30.474 L 147.263 30.474 L 147.263 30.474 Q 147.263 32.567 148.1 33.663 L 148.1 33.663 L 148.1 33.663 Q 148.937 34.759 150.561 34.759 L 150.561 34.759 L 150.561 34.759 Q 152.186 34.759 153.028 33.668 L 153.028 33.668 L 153.028 33.668 Q 153.87 32.577 153.87 30.474 L 153.87 30.474 L 153.87 30.474 Q 153.87 28.392 153.028 27.31 L 153.028 27.31 L 153.028 27.31 Q 152.186 26.229 150.542 26.229 L 150.542 26.229 L 150.542 26.229 Q 148.917 26.229 148.09 27.295 L 148.09 27.295 L 148.09 27.295 Q 147.263 28.362 147.263 30.474 Z  M 162.011 34.779 L 162.011 34.779 L 162.011 34.779 Q 162.45 34.779 162.858 34.714 L 162.858 34.714 L 162.858 34.714 Q 163.267 34.65 163.506 34.58 L 163.506 34.58 L 163.506 35.845 L 163.506 35.845 Q 163.237 35.975 162.714 36.06 L 162.714 36.06 L 162.714 36.06 Q 162.191 36.144 161.772 36.144 L 161.772 36.144 L 161.772 36.144 Q 158.603 36.144 158.603 32.806 L 158.603 32.806 L 158.603 26.309 L 157.039 26.309 L 157.039 25.512 L 158.603 24.824 L 159.301 22.492 L 160.257 22.492 L 160.257 25.023 L 163.426 25.023 L 163.426 26.309 L 160.257 26.309 L 160.257 32.736 L 160.257 32.736 Q 160.257 33.723 160.726 34.251 L 160.726 34.251 L 160.726 34.251 Q 161.194 34.779 162.011 34.779 Z  M 172.733 32.966 L 172.733 32.966 L 172.733 32.966 Q 172.733 34.49 171.597 35.317 L 171.597 35.317 L 171.597 35.317 Q 170.461 36.144 168.409 36.144 L 168.409 36.144 L 168.409 36.144 Q 166.236 36.144 165.021 35.457 L 165.021 35.457 L 165.021 33.922 L 165.021 33.922 Q 165.808 34.321 166.71 34.55 L 166.71 34.55 L 166.71 34.55 Q 167.611 34.779 168.449 34.779 L 168.449 34.779 L 168.449 34.779 Q 169.744 34.779 170.441 34.366 L 170.441 34.366 L 170.441 34.366 Q 171.139 33.952 171.139 33.105 L 171.139 33.105 L 171.139 33.105 Q 171.139 32.467 170.586 32.014 L 170.586 32.014 L 170.586 32.014 Q 170.033 31.56 168.429 30.943 L 168.429 30.943 L 168.429 30.943 Q 166.904 30.375 166.261 29.951 L 166.261 29.951 L 166.261 29.951 Q 165.618 29.528 165.305 28.99 L 165.305 28.99 L 165.305 28.99 Q 164.991 28.451 164.991 27.704 L 164.991 27.704 L 164.991 27.704 Q 164.991 26.369 166.077 25.596 L 166.077 25.596 L 166.077 25.596 Q 167.163 24.824 169.056 24.824 L 169.056 24.824 L 169.056 24.824 Q 170.82 24.824 172.504 25.542 L 172.504 25.542 L 171.916 26.887 L 171.916 26.887 Q 170.272 26.209 168.937 26.209 L 168.937 26.209 L 168.937 26.209 Q 167.761 26.209 167.163 26.578 L 167.163 26.578 L 167.163 26.578 Q 166.565 26.947 166.565 27.594 L 166.565 27.594 L 166.565 27.594 Q 166.565 28.033 166.789 28.342 L 166.789 28.342 L 166.789 28.342 Q 167.014 28.651 167.512 28.93 L 167.512 28.93 L 167.512 28.93 Q 168.01 29.209 169.425 29.737 L 169.425 29.737 L 169.425 29.737 Q 171.368 30.444 172.051 31.162 L 172.051 31.162 L 172.051 31.162 Q 172.733 31.879 172.733 32.966 Z  M 178.952 34.779 L 178.952 34.779 L 178.952 34.779 Q 179.39 34.779 179.799 34.714 L 179.799 34.714 L 179.799 34.714 Q 180.207 34.65 180.446 34.58 L 180.446 34.58 L 180.446 35.845 L 180.446 35.845 Q 180.177 35.975 179.654 36.06 L 179.654 36.06 L 179.654 36.06 Q 179.131 36.144 178.712 36.144 L 178.712 36.144 L 178.712 36.144 Q 175.544 36.144 175.544 32.806 L 175.544 32.806 L 175.544 26.309 L 173.979 26.309 L 173.979 25.512 L 175.544 24.824 L 176.241 22.492 L 177.198 22.492 L 177.198 25.023 L 180.367 25.023 L 180.367 26.309 L 177.198 26.309 L 177.198 32.736 L 177.198 32.736 Q 177.198 33.723 177.666 34.251 L 177.666 34.251 L 177.666 34.251 Q 178.134 34.779 178.952 34.779 Z  M 187.611 24.824 L 187.611 24.824 L 187.611 24.824 Q 188.338 24.824 188.916 24.944 L 188.916 24.944 L 188.687 26.478 L 188.687 26.478 Q 188.01 26.329 187.491 26.329 L 187.491 26.329 L 187.491 26.329 Q 186.166 26.329 185.224 27.405 L 185.224 27.405 L 185.224 27.405 Q 184.283 28.481 184.283 30.086 L 184.283 30.086 L 184.283 35.945 L 182.629 35.945 L 182.629 25.023 L 183.994 25.023 L 184.183 27.046 L 184.263 27.046 L 184.263 27.046 Q 184.871 25.98 185.728 25.402 L 185.728 25.402 L 185.728 25.402 Q 186.585 24.824 187.611 24.824 Z  M 198.901 35.945 L 197.676 35.945 L 197.347 34.391 L 197.267 34.391 L 197.267 34.391 Q 196.45 35.417 195.638 35.781 L 195.638 35.781 L 195.638 35.781 Q 194.826 36.144 193.61 36.144 L 193.61 36.144 L 193.61 36.144 Q 191.986 36.144 191.064 35.307 L 191.064 35.307 L 191.064 35.307 Q 190.142 34.47 190.142 32.926 L 190.142 32.926 L 190.142 32.926 Q 190.142 29.617 195.434 29.458 L 195.434 29.458 L 197.287 29.398 L 197.287 28.72 L 197.287 28.72 Q 197.287 27.435 196.734 26.822 L 196.734 26.822 L 196.734 26.822 Q 196.181 26.209 194.965 26.209 L 194.965 26.209 L 194.965 26.209 Q 193.6 26.209 191.876 27.046 L 191.876 27.046 L 191.368 25.781 L 191.368 25.781 Q 192.175 25.342 193.137 25.093 L 193.137 25.093 L 193.137 25.093 Q 194.098 24.844 195.065 24.844 L 195.065 24.844 L 195.065 24.844 Q 197.018 24.844 197.96 25.711 L 197.96 25.711 L 197.96 25.711 Q 198.901 26.578 198.901 28.491 L 198.901 28.491 L 198.901 35.945 L 198.901 35.945 Z  M 193.939 34.779 L 193.939 34.779 L 193.939 34.779 Q 195.483 34.779 196.365 33.932 L 196.365 33.932 L 196.365 33.932 Q 197.247 33.085 197.247 31.56 L 197.247 31.56 L 197.247 30.574 L 195.593 30.644 L 195.593 30.644 Q 193.62 30.713 192.748 31.257 L 192.748 31.257 L 192.748 31.257 Q 191.876 31.8 191.876 32.946 L 191.876 32.946 L 191.876 32.946 Q 191.876 33.842 192.419 34.311 L 192.419 34.311 L 192.419 34.311 Q 192.962 34.779 193.939 34.779 Z  M 207.391 36.144 L 207.391 36.144 L 207.391 36.144 Q 206.325 36.144 205.443 35.751 L 205.443 35.751 L 205.443 35.751 Q 204.561 35.357 203.963 34.54 L 203.963 34.54 L 203.844 34.54 L 203.844 34.54 Q 203.963 35.497 203.963 36.354 L 203.963 36.354 L 203.963 40.848 L 202.309 40.848 L 202.309 25.023 L 203.655 25.023 L 203.884 26.518 L 203.963 26.518 L 203.963 26.518 Q 204.601 25.621 205.448 25.223 L 205.448 25.223 L 205.448 25.223 Q 206.295 24.824 207.391 24.824 L 207.391 24.824 L 207.391 24.824 Q 209.564 24.824 210.745 26.309 L 210.745 26.309 L 210.745 26.309 Q 211.925 27.794 211.925 30.474 L 211.925 30.474 L 211.925 30.474 Q 211.925 33.165 210.725 34.655 L 210.725 34.655 L 210.725 34.655 Q 209.524 36.144 207.391 36.144 Z  M 207.152 26.229 L 207.152 26.229 L 207.152 26.229 Q 205.478 26.229 204.731 27.156 L 204.731 27.156 L 204.731 27.156 Q 203.983 28.083 203.963 30.106 L 203.963 30.106 L 203.963 30.474 L 203.963 30.474 Q 203.963 32.776 204.731 33.768 L 204.731 33.768 L 204.731 33.768 Q 205.498 34.759 207.192 34.759 L 207.192 34.759 L 207.192 34.759 Q 208.607 34.759 209.409 33.613 L 209.409 33.613 L 209.409 33.613 Q 210.211 32.467 210.211 30.454 L 210.211 30.454 L 210.211 30.454 Q 210.211 28.412 209.409 27.32 L 209.409 27.32 L 209.409 27.32 Q 208.607 26.229 207.152 26.229 Z " fill="rgb(0,0,0)"/></svg>