<?xml version="1.0" standalone="no"?>
<!DOCTYPE svg PUBLIC "-//W3C//DTD SVG 20010904//EN"
 "http://www.w3.org/TR/2001/REC-SVG-20010904/DTD/svg10.dtd">
<svg version="1.0" xmlns="http://www.w3.org/2000/svg"
 width="3043.000000pt" height="812.000000pt" viewBox="0 0 3043.000000 812.000000"
 preserveAspectRatio="xMidYMid meet">

<g transform="translate(0.000000,812.000000) scale(0.100000,-0.100000)"
fill="#000000" stroke="none">
<path d="M8527 8094 c-456 -69 -901 -297 -1265 -648 -901 -870 -1107 -2212
-545 -3551 70 -166 212 -446 303 -599 39 -65 69 -124 67 -130 -7 -18 -319
-227 -507 -339 -199 -119 -567 -302 -785 -392 -1205 -497 -2531 -587 -3725
-253 -563 157 -1055 406 -1383 701 l-79 70 -304 -304 -305 -304 80 -77 c307
-293 889 -614 1456 -803 1052 -351 2261 -418 3380 -189 909 186 1761 550 2532
1080 67 46 124 84 127 84 3 0 118 -168 255 -373 322 -481 414 -610 536 -749
152 -173 243 -240 370 -274 66 -18 197 -18 285 1 239 50 835 340 1327 646 230
142 714 473 776 529 4 3 -36 40 -89 81 -149 113 -376 339 -511 508 l-19 23
-110 -78 c-383 -273 -866 -559 -1234 -729 -199 -92 -183 -88 -212 -57 -52 56
-688 996 -688 1017 0 5 66 69 147 140 199 176 659 636 819 819 590 677 944
1287 1088 1876 53 214 70 349 70 565 0 212 -15 339 -63 520 -156 591 -620
1058 -1168 1175 -131 29 -479 36 -626 14z m495 -873 c83 -27 201 -105 264
-174 100 -112 154 -209 200 -366 38 -126 44 -339 16 -506 -38 -219 -102 -405
-222 -650 -211 -427 -557 -882 -1040 -1366 -215 -216 -462 -441 -471 -431 -22
23 -178 318 -232 442 -343 771 -363 1487 -61 2120 234 489 684 859 1149 945
114 21 309 14 397 -14z"/>
<path d="M12270 7370 c-841 -102 -1570 -887 -1853 -1995 -92 -358 -121 -590
-121 -950 0 -283 11 -403 55 -620 58 -278 176 -577 310 -786 83 -129 256 -321
408 -453 158 -138 229 -185 386 -262 330 -160 613 -226 1033 -240 386 -13 785
41 1072 146 108 39 306 136 389 190 l63 41 52 -49 c332 -312 838 -431 1379
-321 278 56 526 179 744 368 l83 72 87 -12 c111 -15 428 -6 573 16 137 21 257
48 361 81 l83 26 30 -38 c16 -22 77 -86 135 -144 295 -294 660 -426 1117 -406
413 18 775 156 1037 396 l65 60 140 0 c685 0 1195 259 1551 789 285 424 431
923 431 1477 0 153 0 154 23 154 61 0 354 -44 436 -66 179 -48 246 -86 281
-160 20 -40 22 -57 17 -122 -8 -110 -41 -228 -182 -647 -181 -541 -219 -704
-219 -940 1 -120 5 -165 22 -226 40 -149 120 -277 248 -399 241 -230 542 -334
916 -316 324 15 605 100 855 258 38 24 67 36 75 32 7 -4 34 -24 60 -45 69 -54
191 -121 293 -162 250 -100 603 -112 881 -31 251 72 518 223 662 374 47 48 54
53 63 37 30 -52 140 -174 204 -226 187 -150 398 -223 690 -238 252 -12 453 29
672 138 l142 71 45 -32 c70 -47 201 -106 301 -135 248 -71 658 -51 948 46 174
58 350 161 482 281 226 207 422 560 540 969 31 108 97 400 91 406 -4 4 -740
233 -742 230 -1 -1 -18 -84 -38 -184 -81 -407 -192 -682 -332 -819 -113 -112
-261 -167 -449 -168 -129 -1 -184 14 -260 72 -145 110 -215 296 -215 575 0
345 124 1284 239 1812 11 49 18 91 15 94 -4 4 -837 121 -841 118 -4 -5 -96
-589 -122 -777 -76 -546 -111 -934 -118 -1316 -5 -276 1 -411 23 -485 3 -12
-12 -23 -56 -43 -141 -64 -305 -72 -419 -21 -98 44 -155 120 -188 252 -41 159
-8 818 107 2173 82 961 112 1389 126 1793 l7 197 -425 0 -425 0 -6 -122 c-4
-66 -7 -214 -7 -327 0 -274 -30 -1213 -46 -1428 l-6 -82 -96 48 c-329 165
-750 185 -1141 55 -392 -130 -712 -427 -930 -862 -204 -408 -281 -994 -190
-1443 l21 -103 -28 -23 c-154 -126 -408 -191 -574 -149 -78 20 -160 72 -199
127 -97 133 -80 274 85 732 219 604 274 819 274 1072 0 133 -19 226 -64 320
-61 129 -140 204 -296 284 -171 88 -312 130 -696 206 -635 127 -1082 277
-1294 435 l-53 40 -33 -48 c-18 -26 -116 -168 -218 -317 l-184 -270 21 -23
c54 -58 254 -179 409 -247 l87 -38 7 -65 c17 -163 -21 -524 -80 -756 -123
-478 -351 -820 -631 -947 -64 -29 -201 -66 -210 -57 -3 2 0 20 5 39 6 19 22
95 36 169 22 110 27 175 31 348 6 242 -4 348 -48 529 -46 191 -104 322 -207
478 -96 146 -177 233 -332 357 -73 59 -74 60 -90 40 -63 -78 -525 -592 -532
-592 -10 0 -21 -50 81 390 60 264 85 387 77 391 -28 17 -205 50 -319 61 -209
19 -476 -11 -674 -77 -461 -154 -862 -566 -1056 -1085 -89 -238 -121 -432
-123 -749 l-1 -245 -39 -13 c-88 -31 -334 -58 -334 -37 0 3 7 32 15 63 53 205
78 555 56 766 -44 400 -182 699 -445 960 -67 66 -142 134 -167 152 l-46 32
-254 -286 c-140 -158 -261 -296 -271 -308 -9 -11 -20 -17 -23 -13 -4 4 31 176
79 382 47 206 86 379 86 385 0 13 -78 36 -194 58 -137 25 -424 22 -580 -6
-399 -72 -723 -275 -993 -621 -221 -284 -359 -629 -403 -1004 -17 -144 -15
-421 4 -544 l16 -103 -28 -24 c-42 -37 -170 -109 -253 -143 -196 -80 -415
-115 -719 -115 -509 1 -754 93 -1045 394 -144 149 -191 217 -246 356 -90 232
-127 418 -136 688 -13 435 94 925 290 1324 292 595 762 917 1157 792 183 -58
399 -250 449 -399 106 -314 -167 -923 -705 -1568 l-92 -111 350 -229 c193
-126 356 -232 363 -237 34 -19 428 517 600 817 187 328 309 647 350 924 22
140 21 369 0 492 -17 102 -72 274 -112 355 -166 329 -530 641 -905 773 -179
64 -452 94 -638 72z m3150 -2685 c225 -58 400 -249 487 -532 26 -83 27 -99 28
-293 0 -221 -10 -292 -61 -447 -98 -293 -291 -488 -549 -553 -253 -65 -478
-17 -644 136 -217 201 -311 486 -272 823 32 275 124 481 290 649 201 202 467
283 721 217z m3557 -10 c328 -110 525 -487 485 -931 -38 -416 -208 -710 -487
-839 -113 -53 -193 -69 -340 -69 -117 0 -138 3 -210 27 -226 79 -401 285 -470
552 -43 165 -38 404 11 593 92 355 358 629 669 688 103 20 245 11 342 -21z
m6761 5 c144 -40 277 -124 391 -245 33 -36 64 -77 67 -91 14 -54 -4 -416 -24
-512 -91 -419 -347 -813 -607 -937 -76 -35 -196 -65 -264 -65 -277 1 -479 185
-569 519 -23 88 -26 113 -26 291 0 221 15 314 76 477 55 145 119 244 233 358
133 133 247 197 399 225 75 13 240 3 324 -20z"/>
<path d="M28061 6695 c-62 -251 -110 -459 -107 -463 7 -7 838 -181 844 -177 3
3 241 889 239 891 -1 1 -186 45 -412 98 -225 53 -419 99 -430 102 -19 5 -28
-26 -134 -451z"/>
<path d="M11450 1345 c-225 -49 -420 -239 -481 -472 -28 -108 -28 -297 0 -406
78 -300 337 -483 652 -463 107 7 179 22 246 52 l52 23 -33 98 c-19 54 -37 105
-40 114 -6 14 -14 13 -69 -10 -54 -22 -77 -25 -172 -26 -98 0 -116 3 -165 26
-151 71 -242 246 -226 436 14 177 113 317 263 373 72 27 194 28 273 3 30 -9
59 -17 63 -18 8 0 97 188 97 206 0 16 -81 50 -157 65 -92 17 -217 17 -303 -1z"/>
<path d="M16493 1342 l-121 -15 -7 -123 c-4 -68 -5 -147 -1 -176 3 -29 7 -268
8 -531 l1 -478 126 3 126 3 -1 215 c-1 118 -9 323 -18 454 -9 131 -15 241 -13
243 3 2 30 -40 62 -94 32 -54 135 -221 228 -372 93 -151 194 -319 225 -373 40
-72 59 -97 71 -94 9 2 62 10 118 17 101 12 102 13 108 41 4 16 5 310 3 653
l-3 625 -122 0 -122 0 -7 -56 c-3 -30 -3 -124 0 -207 12 -279 26 -531 32 -590
3 -36 2 -57 -4 -53 -5 3 -33 47 -62 98 -29 51 -132 221 -230 378 -97 157 -198
322 -225 368 -26 45 -48 81 -49 81 0 -1 -56 -9 -123 -17z"/>
<path d="M29866 1349 c-60 -14 -153 -68 -192 -112 -20 -22 -48 -65 -63 -96
-22 -48 -26 -70 -26 -146 0 -132 20 -182 109 -270 42 -42 112 -96 171 -132 56
-34 122 -84 148 -112 40 -43 47 -56 47 -91 0 -59 -22 -95 -75 -120 -40 -19
-58 -22 -128 -18 -53 3 -98 12 -128 25 l-46 21 -47 -107 c-46 -106 -46 -106
-25 -122 66 -49 248 -79 375 -60 191 28 306 138 334 320 30 191 -46 307 -304
466 -143 88 -194 162 -163 238 29 68 128 85 250 43 37 -12 69 -20 71 -17 11
18 96 213 96 220 0 14 -111 59 -174 70 -70 13 -175 13 -230 0z"/>
<path d="M13955 1328 c-2 -7 -57 -159 -121 -338 -233 -654 -323 -924 -310
-938 8 -7 229 -50 237 -46 4 2 23 62 44 134 l38 130 241 -2 240 -3 37 -115
c21 -63 40 -122 42 -131 4 -15 15 -15 122 7 65 13 120 26 122 28 13 13 -85
310 -291 881 l-144 400 -126 3 c-96 2 -127 -1 -131 -10z m210 -563 c43 -126
80 -236 83 -242 3 -10 -33 -13 -160 -13 -91 0 -167 3 -170 6 -3 3 31 115 75
249 45 135 84 241 88 237 3 -4 41 -110 84 -237z"/>
<path d="M19557 1333 c-2 -5 -15 -39 -27 -78 -12 -38 -80 -230 -150 -425 -114
-316 -235 -677 -254 -752 -7 -31 -9 -30 119 -53 50 -9 97 -18 106 -21 13 -3
24 22 55 131 l39 135 241 0 241 0 42 -135 c35 -112 45 -135 59 -131 9 3 62 15
116 26 55 11 102 22 104 25 14 13 -76 284 -314 952 l-119 333 -127 0 c-70 0
-129 -3 -131 -7z m212 -571 c44 -132 81 -242 81 -245 0 -4 -74 -7 -165 -7
-148 0 -165 2 -165 17 0 25 151 473 160 473 4 0 44 -107 89 -238z"/>
<path d="M22121 1330 c-41 -5 -95 -11 -119 -15 l-45 -7 6 -330 c4 -182 7 -472
7 -645 l0 -313 124 0 124 0 7 42 c4 24 6 126 4 227 l-4 185 106 2 107 1 97
-176 c54 -97 116 -204 137 -238 l39 -62 115 57 c63 31 114 60 114 63 0 4 -60
107 -134 230 l-133 224 54 57 c30 32 66 83 81 115 24 53 27 69 27 178 0 116
-1 123 -33 187 -52 105 -148 179 -279 213 -62 16 -268 19 -402 5z m363 -258
c67 -30 91 -72 91 -158 0 -93 -29 -140 -111 -180 -50 -24 -70 -28 -146 -28
-48 0 -89 2 -91 4 -3 3 -6 88 -8 190 l-4 185 50 7 c76 9 171 1 219 -20z"/>
<path d="M24750 680 l0 -660 125 0 125 0 0 660 0 660 -125 0 -125 0 0 -660z"/>
<path d="M27260 1330 c0 -6 -45 -137 -101 -293 -205 -574 -248 -697 -289 -831
-23 -76 -40 -143 -37 -149 3 -9 135 -38 230 -51 8 -1 21 36 67 192 l21 72 239
0 238 0 43 -127 c23 -71 43 -131 45 -134 3 -6 233 38 242 46 8 7 -84 291 -190
585 -66 184 -148 416 -183 515 l-63 180 -131 3 c-86 2 -131 -1 -131 -8z m210
-559 c44 -128 80 -239 80 -247 0 -12 -28 -14 -165 -14 -91 0 -165 3 -165 7 0
17 162 494 166 490 3 -3 41 -109 84 -236z"/>
</g>
</svg>
